Coordinates
nRows=12
nColumns=24

# SIMM Motion File Header:
name Coordinates
datacolumns 24
datarows 12
otherdata 1
range 0.55732999999999999000 0.56833000000000000000
endheader
time	pelvis_tx	pelvis_ty	pelvis_tz	pelvis_tilt	pelvis_list	pelvis_rotation	hip_flexion_r	hip_adduction_r	hip_rotation_r	knee_angle_r	ankle_angle_r	subtalar_angle_r	mtp_angle_r	hip_flexion_l	hip_adduction_l	hip_rotation_l	knee_angle_l	ankle_angle_l	subtalar_angle_l	mtp_angle_l	lumbar_extension	lumbar_bending	lumbar_rotation
      0.55732999999999999000	      0.88995888097316800000	      0.80151432914486764000	     -0.27909210451917732000	     -3.03420474257852480000	      3.21280434436344420000	      0.60636440438255867000	     24.46941501767375000000	     -6.74512580815211480000	      2.23860149662724870000	    -46.71278709208636600000	      0.55229809430552623000	     -0.00000000000000017224	     -0.00000000000000224640	     -5.08631279819932840000	      6.86178178588128950000	     -2.03203956507062640000	      8.23387393451624310000	     -0.78114501735244180000	      0.00000000000002597848	     -0.00000000000010760669	     -0.00247891836012622360	     -3.27107349089238970000	     -4.79116873890135240000
      0.55832999999999999000	      0.89036370646988316000	      0.80150898514208768000	     -0.27915416743184168000	     -3.03772890632723410000	      3.19818338234706620000	      0.64407526443179275000	     24.53151610331246200000	     -6.73786813725925880000	      2.18644597820579280000	    -46.52516392870975200000	      0.58682406296481515000	     -0.00000000000000017977	     -0.00000000000000227609	     -5.10561377904203970000	      6.84822014230305070000	     -2.03408469951006720000	      8.21532619105315300000	     -0.78197287181128250000	      0.00000000000002615169	     -0.00000000000010850725	     -0.01204606155192198800	     -3.25269174134830810000	     -4.81034823507359730000
      0.55932999999999999000	      0.89076987282951892000	      0.80150745287722969000	     -0.27921569167491828000	     -3.03791158918925450000	      3.18590474549859430000	      0.68097355917626690000	     24.58962993934548200000	     -6.73345533132489750000	      2.13394911332547470000	    -46.33600055120210500000	      0.61196817404504000000	     -0.00000000000000018783	     -0.00000000000000228932	     -5.13048799420677960000	      6.83744456502387270000	     -2.03685964291269220000	      8.20211258230292200000	     -0.80899844682879207000	      0.00000000000002634401	     -0.00000000000010945386	     -0.02531982619571664800	     -3.23694309419488180000	     -4.82858853550147950000
      0.56032999999999999000	      0.89117785169084629000	      0.80151106485193391000	     -0.27927648924776433000	     -3.03358181298913990000	      3.17679490332892510000	      0.71677497337704210000	     24.64235811653988500000	     -6.73289203716384590000	      2.08098740272410730000	    -46.14475441065537400000	      0.62442900570149618000	     -0.00000000000000019661	     -0.00000000000000227971	     -5.16288846204476930000	      6.83043784407292790000	     -2.04060878980007800000	      8.19610061998039720000	     -0.87135549823917002000	      0.00000000000002656248	     -0.00000000000011046412	     -0.04359865206963325900	     -3.22475673942122040000	     -4.84555928998775000000
      0.56133000000000000000	      0.89158583055217366000	      0.80151467682663813000	     -0.27933728682061043000	     -3.02925203678902480000	      3.16768506115925640000	      0.75257638757781731000	     24.69508629373429200000	     -6.73232874300279520000	      2.02802569212274000000	    -45.95350827010863500000	      0.63688983735795235000	     -0.00000000000000020540	     -0.00000000000000227009	     -5.19528892988275980000	      6.82343112312198220000	     -2.04435793668746420000	      8.19008865765787240000	     -0.93371254964954797000	      0.00000000000002678096	     -0.00000000000011147439	     -0.06187747794354987700	     -3.21257038464755950000	     -4.86253004447402050000
      0.56233000000000000000	      0.89199513006639364000	      0.80151843540746359000	     -0.27939789713309887000	     -3.02330546704964930000	      3.16234743790858990000	      0.78791322261729602000	     24.74550426122854000000	     -6.73672403815089730000	      1.97340874316109010000	    -45.76020749596481400000	      0.63873757925260932000	     -0.00000000000000022795	     -0.00000000000000217613	     -5.23022083465768880000	      6.82092779021872350000	     -2.04385697989354220000	      8.18539619105117740000	     -0.98169828656801938000	      0.00000000000002707610	     -0.00000000000011272388	     -0.08170615663015827500	     -3.20471657222589680000	     -4.87820490989438850000
      0.56333000000000000000	      0.89240454079363962000	      0.80152220633408444000	     -0.27945849167627262000	     -3.01722274609086890000	      3.15732747562898240000	      0.82321093514806554000	     24.79572768448438000000	     -6.74153689928041540000	      1.91865240551703550000	    -45.56673369980990200000	      0.63969158606134890000	     -0.00000000000000025166	     -0.00000000000000207506	     -5.26536591335831710000	      6.81880369050712250000	     -2.04299811914666880000	      8.18081484002377120000	     -1.02847380588912340000	      0.00000000000002737770	     -0.00000000000011399351	     -0.10166534941471542000	     -3.19722760597044120000	     -4.89377064766657450000
      0.56433000000000000000	      0.89281378248624432000	      0.80152246874680355000	     -0.27951903824956714000	     -3.01297008511749720000	      3.15283386705366690000	      0.85865583046515548000	     24.84786535442072300000	     -6.74715334377936230000	      1.86323372253066610000	    -45.37315457148010700000	      0.64338227927490976000	     -0.00000000000000028445	     -0.00000000000000196267	     -5.29736607122489640000	      6.81736563400542030000	     -2.03883675441133020000	      8.17240938928175350000	     -1.03950250319756330000	      0.00000000000002768142	     -0.00000000000011530545	     -0.11938133787408547000	     -3.19040996780327600000	     -4.90894407015851360000
      0.56533000000000000000	      0.89322279297045470000	      0.80151793215583922000	     -0.27957951920886276000	     -3.01122061063755050000	      3.14906021383164660000	      0.89430204484594811000	     24.90262136281258900000	     -6.75386894297964700000	      1.80690907256611850000	    -45.17943136804917300000	      0.65081625768125517000	     -0.00000000000000032968	     -0.00000000000000183477	     -5.32506455405489200000	      6.81686595881942380000	     -2.03015816977920060000	      8.15877327133130770000	     -1.00163610266309070000	      0.00000000000002798804	     -0.00000000000011667523	     -0.13402903413889877000	     -3.18451058336367330000	     -4.92358087728346660000
      0.56633000000000000000	      0.89363176763254548000	      0.80151261610043856000	     -0.27963986635910354000	     -3.00990386067747330000	      3.14527632933809320000	      0.92990674379375593000	     24.95785726764386300000	     -6.76055515556290310000	      1.75057078528524060000	    -44.98574292585514900000	      0.65934965117551991000	     -0.00000000000000037419	     -0.00000000000000170724	     -5.35207753435920090000	      6.81637449155285770000	     -2.02107893593617490000	      8.14444538519941650000	     -0.95739946649666496000	      0.00000000000002829497	     -0.00000000000011804843	     -0.14814509612668969000	     -3.17861503771969600000	     -4.93806953947870750000
      0.56733000000000000000	      0.89404045195705839000	      0.80150098250104018000	     -0.27969912898957450000	     -3.01209433448001200000	      3.14140952058904870000	      0.96517496096991939000	     25.01698272372218300000	     -6.76700319019040290000	      1.69412196782246440000	    -44.79233622280582900000	      0.67679378243545230000	     -0.00000000000000041293	     -0.00000000000000158267	     -5.37353453011207540000	      6.81594954931260500000	     -2.00875244808186040000	      8.12451073149881250000	     -0.86153219523564573000	      0.00000000000002860442	     -0.00000000000011944929	     -0.15795227270637444000	     -3.17275060543911590000	     -4.95135748991868590000
      0.56833000000000000000	      0.89444947037326372000	      0.80148392946552360000	     -0.27975552899694955000	     -3.01716922815928830000	      3.13711707627256460000	      0.99886071062446558000	     25.07949076298320200000	     -6.77215069061070540000	      1.63890543708943600000	    -44.59921685746629500000	      0.70429932112572324000	     -0.00000000000000046424	     -0.00000000000000143597	     -5.39140558924464040000	      6.81523335270210940000	     -1.99708539670572320000	      8.10313605592772570000	     -0.74505190116374209000	      0.00000000000002893453	     -0.00000000000012093656	     -0.16402323665366395000	     -3.16651433497648550000	     -4.96217501401709260000
